HIERARCHY
ROOT Hips
{
	OFFSET	0.00	0.00	0.00
	CHANNELS 6 Xposition Yposition Zposition Zrotation Xrotation Yrotation
	JOINT LeftUpLeg
	{
		OFFSET	 0.126116	-0.065224	 0.014019
		CHANNELS 3 Zrotation Xrotation Yrotation
		JOINT LeftLeg
		{
			OFFSET	 0.000000	 0.569914	 0.000000
			CHANNELS 3 Zrotation Xrotation Yrotation
			JOINT LeftFoot
			{
				OFFSET	 0.000000	 0.544423	 0.000000
				CHANNELS 3 Zrotation Xrotation Yrotation
				JOINT LeftToeBase
				{
					OFFSET	 0.000000	 0.207117	 0.000000
					CHANNELS 3 Zrotation Xrotation Yrotation
					End Site
					{
						OFFSET	 0.000000	 0.207117	 0.000000
					}
				}
			}
		}
	}
	JOINT RightUpLeg
	{
		OFFSET	-0.124023	-0.065224	 0.008373
		CHANNELS 3 Zrotation Xrotation Yrotation
		JOINT RightLeg
		{
			OFFSET	 0.000000	 0.570047	 0.000000
			CHANNELS 3 Zrotation Xrotation Yrotation
			JOINT RightFoot
			{
				OFFSET	 0.000000	 0.544354	 0.000000
				CHANNELS 3 Zrotation Xrotation Yrotation
				JOINT RightToeBase
				{
					OFFSET	 0.000000	 0.207540	 0.000000
					CHANNELS 3 Zrotation Xrotation Yrotation
					End Site
					{
						OFFSET	 0.000000	 0.207540	 0.000000
					}
				}
			}
		}
	}
	JOINT Spine
	{
		OFFSET	 0.000184	 0.117403	 0.007763
		CHANNELS 3 Zrotation Xrotation Yrotation
		JOINT Spine1
		{
			OFFSET	 0.000000	 0.137269	 0.000000
			CHANNELS 3 Zrotation Xrotation Yrotation
			JOINT Spine2
			{
				OFFSET	 0.000000	 0.156879	 0.000000
				CHANNELS 3 Zrotation Xrotation Yrotation
				JOINT LeftShoulder
				{
					OFFSET	 0.080501	 0.160143	 0.002496
					CHANNELS 3 Zrotation Xrotation Yrotation
					JOINT LeftArm
					{
						OFFSET	 0.000000	 0.164363	 0.000000
						CHANNELS 3 Zrotation Xrotation Yrotation
						JOINT LeftForeArm
						{
							OFFSET	 0.000000	 0.364576	 0.000000
							CHANNELS 3 Zrotation Xrotation Yrotation
							JOINT LeftHand
							{
								OFFSET	 0.000000	 0.360812	 0.000000
								CHANNELS 3 Zrotation Xrotation Yrotation
								JOINT LeftHandIndex1
								{
									OFFSET	 0.000000	 0.086006	 0.000000
									CHANNELS 3 Zrotation Xrotation Yrotation
									JOINT LeftHandIndex2
									{
										OFFSET	 0.000000	 0.047237	 0.000000
										CHANNELS 3 Zrotation Xrotation Yrotation
										JOINT LeftHandIndex3
										{
											OFFSET	-0.004284	 0.038165	 0.000551
											CHANNELS 3 Zrotation Xrotation Yrotation
											End Site
											{
												OFFSET	-0.004284	 0.038165	 0.000551
											}
										}
									}
								}
							}
						}
					}
				}
				JOINT Neck
				{
					OFFSET	 0.000000	 0.176489	 0.000000
					CHANNELS 3 Zrotation Xrotation Yrotation
					JOINT Head
					{
						OFFSET	 0.000000	 0.077941	 0.001747
						CHANNELS 3 Zrotation Xrotation Yrotation
						End Site
						{
							OFFSET	 0.000000	 0.077941	 0.001747
						}
					}
				}
				JOINT RightShoulder
				{
					OFFSET	-0.080363	 0.159706	-0.000306
					CHANNELS 3 Zrotation Xrotation Yrotation
					JOINT RightArm
					{
						OFFSET	 0.000000	 0.164196	 0.000000
						CHANNELS 3 Zrotation Xrotation Yrotation
						JOINT RightForeArm
						{
							OFFSET	 0.000000	 0.365611	 0.000000
							CHANNELS 3 Zrotation Xrotation Yrotation
							JOINT RightHand
							{
								OFFSET	 0.000000	 0.360648	 0.000000
								CHANNELS 3 Zrotation Xrotation Yrotation
								JOINT RightHandIndex1
								{
									OFFSET	 0.000000	 0.069977	 0.000000
									CHANNELS 3 Zrotation Xrotation Yrotation
									JOINT RightHandIndex2
									{
										OFFSET	 0.000000	 0.052305	 0.000000
										CHANNELS 3 Zrotation Xrotation Yrotation
										JOINT RightHandIndex3
										{
											OFFSET	 0.009002	 0.042196	 0.000782
											CHANNELS 3 Zrotation Xrotation Yrotation
											End Site
											{
												OFFSET	 0.009002	 0.042196	 0.000782
											}
										}
									}
								}
							}
						}
					}
				}
			}
		}
	}
}
MOTION
Frames:    6
Frame Time: 0.03333334
 0.950332	 1.250635	-0.119315	 3.350432	-4.076814	-39.026750	-176.581800	 7.961833	-24.825450	 3.738547	-35.268180	 4.707421	 63.261120	 48.893480	-81.264180	 1.398028	 23.660640	-7.474030	 155.457400	 22.318840	 41.516450	-3.568657	-35.837940	-2.787659	-42.122170	 46.226810	 51.361930	-1.551625	 29.445600	 3.576789	-0.405358	 5.540656	 0.657194	-2.021869	 1.336376	-0.765269	 0.863096	 3.213130	-1.382015	-109.510000	-21.224050	 101.959700	 75.527570	 10.573380	-50.269360	 26.273060	 0.163704	 24.588470	-29.454590	-37.232620	 33.730800	-7.023974	 15.551590	-5.989598	-7.245196	 8.919094	 2.171661	 4.963066	-4.014628	-0.346955	 10.692310	-8.921412	-12.401030	 1.808785	 1.485011	-44.179850	 91.450170	 1.797915	-92.205770	-17.227680	-8.394504	 69.575160	-26.233190	-2.460231	-18.557290	 27.711230	-32.915020	 5.144516	-2.903610	 16.085390	-3.572870	 14.407390	 24.245550	-7.145444	-8.239867	-2.131385	 0.447455
 0.982984	 1.278638	-0.103241	 0.866580	-4.435152	-41.033330	-177.863500	 2.075953	-27.541440	 2.565500	-25.896030	 1.077668	 57.394740	 48.788300	-72.236680	 1.398039	 23.660620	-7.474038	 163.358400	 15.231490	 29.216950	-1.680948	-18.796630	 0.151104	-32.746410	 40.963680	 41.050670	-1.223357	 27.510970	 3.394296	 0.157725	 4.438436	-21.324680	 2.526217	 2.622624	-1.918132	-4.619064	-0.625582	-1.854384	-111.666900	-29.205800	 102.693600	 81.035940	 9.675517	-52.759690	 28.717830	 0.146970	 27.131540	-42.165490	-27.526360	 27.454930	-7.532032	 15.958990	-5.713912	-7.326474	 9.119953	 2.213415	 4.963066	-4.014628	-0.346955	 6.190844	-10.360300	-13.927240	 0.767094	 3.267699	-42.059670	 92.901570	 6.851833	-93.543690	-15.482420	-5.935144	 60.022320	-28.725050	-2.460297	-21.835330	 20.359750	-19.100590	 7.525242	-2.899624	 15.812680	-4.044579	 14.442220	 25.038350	-7.373812	-8.239867	-2.131385	 0.447455
 0.979449	 1.282856	-0.102894	 0.213461	-4.372194	-42.822750	-177.531100	 0.772882	-29.502680	 2.339022	-23.876610	 0.018896	 55.440190	 49.068030	-70.138500	 1.398014	 23.660610	-7.474026	 165.047900	 13.139970	 27.287070	-1.249291	-14.196790	 1.118020	-31.612740	 39.495520	 38.630290	-1.180894	 27.217560	 3.367281	 0.688197	 3.971140	-36.640610	 5.424613	 4.092871	-2.523724	-8.033745	-2.876016	-1.552423	-111.880800	-29.983040	 102.560700	 81.273560	 8.959880	-52.180610	 27.379840	 0.001842	 25.474080	-43.761130	 4.031807	 28.517530	-7.370164	 17.046460	-5.626365	-7.357370	 8.951632	 2.187466	 4.963066	-4.014628	-0.346955	 5.629348	-10.000290	-12.659010	-0.710355	 1.259438	-42.520210	 92.889430	 8.503209	-94.058100	-14.835590	-4.668732	 58.221780	-27.495800	-1.481567	-22.468800	 1.741103	-1.783831	 5.652467	-2.895455	 15.526840	-4.538875	 14.482660	 25.868900	-7.615051	-8.239867	-2.131385	 0.447455
 0.973951	 1.282753	-0.108746	-0.092026	-4.425419	-43.181190	-176.813500	 0.634252	-29.959100	 2.407902	-24.497560	 0.207777	 54.747730	 49.029590	-69.999380	 1.397976	 23.660630	-7.474005	 165.300500	 13.327320	 27.431050	-1.370042	-15.505640	 0.928483	-32.265040	 39.966730	 39.313640	-1.217471	 27.425400	 3.394115	 1.050120	 3.834231	-38.874310	 5.631361	 4.165787	-2.461193	-7.823483	-2.826522	-1.664376	-111.643100	-29.669750	 102.711100	 81.150470	 9.340102	-51.954600	 21.924280	-0.049971	 19.623510	-42.369090	 27.799520	 26.140290	-7.371101	 16.974410	-5.654726	-7.353853	 8.516502	 2.112403	 4.963066	-4.014628	-0.346955	 6.660198	-9.518707	-11.441020	-1.342943	 0.269586	-43.903060	 92.914930	 8.859487	-94.276630	-14.241720	-5.374023	 58.280030	-21.988340	 1.075510	-23.696910	-13.621310	 13.492180	 14.912830	-2.891136	 15.223690	-5.062983	 14.530040	 26.749340	-7.873187	-8.239867	-2.131385	 0.447455
 0.972237	 1.281932	-0.111749	-0.263250	-4.549943	-43.106000	-176.481900	 0.620560	-29.939070	 2.496535	-25.078850	 0.477526	 54.617430	 49.016430	-70.181960	 1.397949	 23.660650	-7.473987	 165.334800	 13.561730	 27.488310	-1.464362	-16.524300	 0.753059	-32.647090	 40.327360	 39.856460	-1.246890	 27.591870	 3.415746	 0.545157	 4.019302	-25.766760	 4.918561	 3.794439	-2.161282	-6.438989	-2.046786	-1.744211	-111.591500	-29.703690	 102.713200	 81.238740	 9.730135	-51.880230	 12.939630	-0.127820	 10.024600	-41.637920	 33.513920	 18.916440	-7.377966	 16.933070	-5.677344	-7.343607	 8.017395	 2.026009	 4.963066	-4.014628	-0.346955	 7.356809	-9.239450	-10.691560	-1.292115	 0.550987	-44.946500	 92.935180	 9.270574	-94.512340	-13.125550	-6.403072	 58.583310	-12.892160	 1.227110	-19.953590	-19.967440	 18.103620	 27.022460	-2.886982	 14.911440	-5.602645	 14.583790	 27.655750	-8.141731	-8.239867	-2.131385	 0.447455
 0.972797	 1.281713	-0.111372	-0.374985	-4.623135	-43.021200	-176.414400	 0.558521	-29.886250	 2.487182	-25.153300	 0.466759	 54.574720	 49.025300	-70.200750	 1.397941	 23.660670	-7.473978	 165.401000	 13.632190	 27.506860	-1.476543	-16.647960	 0.749409	-32.673070	 40.331250	 39.859830	-1.253623	 27.629920	 3.420704	-0.565004	 4.092113	-6.727648	 4.425741	 3.500032	-1.934235	-5.537714	-1.501042	-1.749055	-111.675900	-29.866080	 102.598800	 81.175630	 9.594646	-51.657760	 4.134470	-0.218004	 0.570270	-42.149200	 22.977050	 10.421140	-7.350546	 17.146300	-5.669656	-7.338349	 7.713279	 1.973598	 4.963066	-4.014628	-0.346955	 7.482002	-9.125741	-10.388640	-1.078648	 1.083426	-45.361100	 92.929430	 9.643172	-94.685090	-12.002450	-6.909620	 58.781140	-4.234284	-0.391486	-13.529410	-13.594220	 12.249170	 35.414190	-2.884949	 14.717690	-5.937320	 14.619750	 28.217950	-8.309854	-8.239867	-2.131385	 0.447455
